<?xml version="1.0" encoding="utf-8"?>
<!-- Generator: Adobe Illustrator 23.0.5, SVG Export Plug-In . SVG Version: 6.00 Build 0)  -->
<svg version="1.1" id="Capa_1" xmlns="http://www.w3.org/2000/svg" xmlns:xlink="http://www.w3.org/1999/xlink" x="0px" y="0px"
	 viewBox="0 0 511.6 511.6" style="enable-background:new 0 0 511.6 511.6;" xml:space="preserve">
<style type="text/css">
	.st0{fill:#FFFFFF;}
</style>
<g>
	<path class="st0" d="M482.5,83.9c-7.2-7.2-15.8-10.8-25.7-10.8h-36.5V45.7c0-12.6-4.5-23.3-13.4-32.3C397.9,4.5,387.2,0,374.6,0
		h-18.3c-12.6,0-23.3,4.5-32.3,13.4c-8.9,8.9-13.4,19.7-13.4,32.3v27.4H201V45.7c0-12.6-4.5-23.3-13.4-32.3
		C178.6,4.5,167.9,0,155.3,0h-18.3c-12.6,0-23.3,4.5-32.3,13.4c-8.9,8.9-13.4,19.7-13.4,32.3v27.4H54.8c-9.9,0-18.5,3.6-25.7,10.8
		c-7.2,7.2-10.9,15.8-10.9,25.7v365.5c0,9.9,3.6,18.5,10.9,25.7c7.2,7.2,15.8,10.8,25.7,10.8h402c9.9,0,18.5-3.6,25.7-10.8
		c7.2-7.2,10.9-15.8,10.9-25.7V109.6C493.4,99.7,489.7,91.2,482.5,83.9z M347.2,45.7c0-2.7,0.8-4.9,2.6-6.6c1.7-1.7,3.9-2.6,6.6-2.6
		h18.3c2.7,0,4.9,0.9,6.6,2.6c1.7,1.7,2.6,3.9,2.6,6.6v82.2c0,2.7-0.9,4.9-2.6,6.6c-1.7,1.7-3.9,2.6-6.6,2.6h-18.3
		c-2.7,0-4.9-0.9-6.6-2.6c-1.7-1.7-2.6-3.9-2.6-6.6V45.7z M127.9,45.7c0-2.7,0.9-4.9,2.6-6.6c1.7-1.7,3.9-2.6,6.6-2.6h18.3
		c2.7,0,4.9,0.9,6.6,2.6c1.7,1.7,2.6,3.9,2.6,6.6v82.2c0,2.7-0.9,4.9-2.6,6.6c-1.7,1.7-3.9,2.6-6.6,2.6h-18.3
		c-2.7,0-4.9-0.9-6.6-2.6c-1.7-1.7-2.6-3.9-2.6-6.6V45.7z M456.8,475.1h-402V182.7h402V475.1z"/>
</g>
</svg>
