<svg xmlns="http://www.w3.org/2000/svg" viewBox="0 0 256.66 314.59"><defs><style>.cls-1{fill:#1d1d1b;}.cls-2{fill:#e30613;}.cls-3{fill:none;}.cls-4{fill:#fff;}</style></defs><title>Fichier 15</title><g id="Calque_2" data-name="Calque 2"><g id="Calque_1-2" data-name="Calque 1"><path class="cls-1" d="M18.76,295.19q.94-17.42,1.42-32.53T20.66,240c.71,0,1.3,0,1.8,0s1.07,0,1.75,0l-1.09,25.82H60.67l.76-20.28c0-1.14.08-3,.08-5.54.71,0,1.31,0,1.8,0s1.07,0,1.76,0q-1.54,25.05-2.14,55.16c-.67,0-1.26,0-1.76,0s-1.14,0-1.8,0q1-14.07,1.2-26.87H23l-.64,19.84-.08,7c-.7,0-1.3,0-1.78,0s-1.11,0-1.78,0"/><path class="cls-1" d="M20.26,295.19c1-18.36,1.86-36.77,1.9-55.16l-1.5,1.5c1.19,0,2.36,0,3.55,0l-1.5-1.5-1.09,25.82a1.52,1.52,0,0,0,1.5,1.5H60.67a1.53,1.53,0,0,0,1.5-1.5c.32-8.6.81-17.21.84-25.82l-1.5,1.5c1.19,0,2.37,0,3.56,0l-1.5-1.5c-1.12,18.37-1.77,36.76-2.14,55.16l1.5-1.5c-1.2,0-2.36,0-3.56,0l1.5,1.5c.6-8.95,1-17.91,1.2-26.87a1.52,1.52,0,0,0-1.5-1.5H23a1.52,1.52,0,0,0-1.5,1.5c-.29,8.95-.62,17.91-.72,26.87l1.5-1.5c-1.19,0-2.37,0-3.56,0-1.93.06-1.93,3.06,0,3,1.19,0,2.37,0,3.56,0a1.53,1.53,0,0,0,1.5-1.5c.1-9,.43-17.92.72-26.87l-1.5,1.5H60.57l-1.5-1.5c-.18,9-.6,17.92-1.2,26.87a1.52,1.52,0,0,0,1.5,1.5c1.2,0,2.36,0,3.56,0a1.53,1.53,0,0,0,1.5-1.5c.37-18.4,1-36.79,2.14-55.16a1.52,1.52,0,0,0-1.5-1.5c-1.19,0-2.37,0-3.56,0A1.52,1.52,0,0,0,60,240c0,8.61-.52,17.22-.84,25.82l1.5-1.5H23.12l1.5,1.5L25.71,240a1.51,1.51,0,0,0-1.5-1.5c-1.19,0-2.36,0-3.55,0a1.52,1.52,0,0,0-1.5,1.5c0,18.39-.91,36.8-1.9,55.16-.1,1.93,2.9,1.92,3,0Z"/><path class="cls-1" d="M94.52,253.53a25.33,25.33,0,0,1,7.28,1.05,15.39,15.39,0,0,1,6.2,3.57,16.15,16.15,0,0,1,4.1,6.61,26.28,26.28,0,0,1,1.41,8.65,30.1,30.1,0,0,1-1.49,9.45,21,21,0,0,1-4.24,7.58,15.11,15.11,0,0,1-6.45,4.3A24.16,24.16,0,0,1,93.47,296a25,25,0,0,1-5.72-.66,16.93,16.93,0,0,1-5.25-2.24A16.06,16.06,0,0,1,78.22,289a18,18,0,0,1-2.79-5.94,26.89,26.89,0,0,1-1-7.16A28.83,28.83,0,0,1,76.9,264a16.16,16.16,0,0,1,7.26-7.94,22,22,0,0,1,10.36-2.54m-.08,2.26a17.78,17.78,0,0,0-8.93,2.34,13.83,13.83,0,0,0-6.06,7.15,27.91,27.91,0,0,0-1.94,10.53,25.33,25.33,0,0,0,1.11,7.59,14.14,14.14,0,0,0,3.58,6,13.63,13.63,0,0,0,5.31,3.39,18.66,18.66,0,0,0,6,1,19.23,19.23,0,0,0,6.75-1.17,13.71,13.71,0,0,0,5.56-3.91,17.15,17.15,0,0,0,3.53-6.74,30.8,30.8,0,0,0,1.13-8.48,26.71,26.71,0,0,0-1.11-7.81,13,13,0,0,0-3.45-5.85,13.17,13.17,0,0,0-5.34-3.09,21.51,21.51,0,0,0-6.14-.89"/><path class="cls-1" d="M94.52,255c12.55.44,18.66,9.49,17.33,21.62-1.13,10.27-7.64,17.87-18.38,17.84-11.73,0-18.08-9.23-17.44-20.41s7.18-18.68,18.49-19c1.93-.07,1.94-3.07,0-3-13,.43-20.78,9.3-21.49,22s7,23.43,20.44,23.41c12.48,0,20.17-8.83,21.38-20.84.62-6.19-.43-13.27-4.53-18.18s-9.81-6.23-15.8-6.44c-1.93-.07-1.93,2.93,0,3Z"/><path class="cls-1" d="M94.44,254.29c-11.58.48-17.83,8.77-18.39,19.9-.54,10.78,5.1,20.55,16.68,21,12,.48,18.62-8.8,19.21-20,.62-11.84-5.21-20.47-17.5-20.91-1.93-.07-1.93,2.93,0,3,10.62.38,15.11,7.92,14.5,17.91-.58,9.51-5.76,17.48-16.21,17-9.9-.45-14.2-9-13.68-18,.55-9.41,5.37-16.49,15.39-16.9,1.93-.08,1.94-3.08,0-3Z"/><path class="cls-1" d="M121.55,313.09l.48-8.16,1.27-36.58.28-12.28a80.59,80.59,0,0,1,9.2-2,55,55,0,0,1,7.66-.56,24,24,0,0,1,10.22,2,14,14,0,0,1,6.69,6.85,24.66,24.66,0,0,1,2.39,11,28.14,28.14,0,0,1-2.53,12,17.51,17.51,0,0,1-6.83,8,18.39,18.39,0,0,1-9.6,2.56,21.07,21.07,0,0,1-4.69-.52,15.77,15.77,0,0,1-4.23-1.6,11.91,11.91,0,0,1-3.27-2.62,27.61,27.61,0,0,1-3.13-4.87l-.63,21.38v1.37c0,.92,0,2.24,0,4-.7,0-1.25,0-1.66,0s-.95,0-1.66,0m5.18-54.51q-.33,3.44-.6,9.82c-.18,4.25-.27,7.07-.27,8.44a27.5,27.5,0,0,0,.73,6.53,12.84,12.84,0,0,0,2.91,5.49,14,14,0,0,0,5.17,3.74,15.65,15.65,0,0,0,6.17,1.25,14.36,14.36,0,0,0,8.22-2.46,15.86,15.86,0,0,0,5.65-7.29,27.32,27.32,0,0,0,2-10.53,22,22,0,0,0-2.06-9.86,13.23,13.23,0,0,0-5.61-6,16.9,16.9,0,0,0-8-1.88,41,41,0,0,0-14.28,2.79"/><path class="cls-1" d="M123.05,313.09c1.11-19,1.6-38,2-57l-1.1,1.45c7.09-1.85,15-3.6,22.29-1.89,8.49,2,11.89,9.63,12,17.78.07,7.48-2.9,16.1-10.08,19.51a18.08,18.08,0,0,1-12.42.9c-4.65-1.34-6.75-4.19-9-8.2a1.51,1.51,0,0,0-2.79.76c-.26,8.9-.72,17.8-.59,26.71l1.5-1.5c-1.11,0-2.21,0-3.32,0-1.92.06-1.93,3.06,0,3,1.11,0,2.21,0,3.32,0a1.52,1.52,0,0,0,1.5-1.5c-.13-8.91.33-17.81.59-26.71l-2.8.76c4.5,8.05,11.92,11.87,21.25,9.84,9.05-2,14.18-10.1,15.47-18.82,1.22-8.22-.59-18.65-8.27-23.3-8.57-5.18-20.39-2.59-29.43-.23a1.51,1.51,0,0,0-1.1,1.44c-.43,19-.92,38-2,57-.11,1.93,2.89,1.92,3,0Z"/><path class="cls-1" d="M125.23,258.58c-.5,5.55-.76,11.16-.85,16.73-.07,4.63.27,9.46,3.06,13.34,5.94,8.26,18.82,9,25.5,1.25,6.22-7.18,7.23-20.19,2.27-28.27-6.15-10-19.49-7.8-28.88-4.5-1.81.64-1,3.54.8,2.89,8.53-3,21.26-5.64,26.22,4.45,3.51,7.14,2.43,18.54-3.4,24.26a13.42,13.42,0,0,1-13.38,3c-6.09-1.91-8.81-7.15-9.16-13.13a136.22,136.22,0,0,1,.82-20c.17-1.92-2.83-1.91-3,0Z"/><path class="cls-1" d="M168.67,295.19q1.86-33.7,2.18-55.16c.7,0,1.25,0,1.66,0s1,0,1.66,0l-1,19.68L172,295.19c-.71,0-1.26,0-1.66,0s-1,0-1.66,0"/><path class="cls-1" d="M170.17,295.19c1-18.37,1.89-36.76,2.18-55.16l-1.5,1.5c1.11,0,2.21,0,3.32,0l-1.5-1.5c-1,18.38-1.58,36.76-2.18,55.16l1.5-1.5c-1.11,0-2.21,0-3.32,0-1.93.06-1.93,3.06,0,3,1.11,0,2.21,0,3.32,0a1.54,1.54,0,0,0,1.5-1.5c.6-18.4,1.22-36.78,2.18-55.16a1.52,1.52,0,0,0-1.5-1.5c-1.11,0-2.21,0-3.32,0a1.52,1.52,0,0,0-1.5,1.5c-.29,18.4-1.18,36.79-2.18,55.16-.11,1.93,2.9,1.92,3,0Z"/><path class="cls-1" d="M186.37,258.66a29.19,29.19,0,0,0,.44-3.15A56.37,56.37,0,0,1,194,254a44.59,44.59,0,0,1,6.14-.42,34.24,34.24,0,0,1,6.68.62,12.29,12.29,0,0,1,5.05,2.11,7,7,0,0,1,2.59,3.37,12.27,12.27,0,0,1,.63,3.88c0,1.35-.05,3.05-.14,5.11s-.23,4.28-.39,6.65-.31,5.32-.44,8.87-.2,6.09-.2,7.65v3.4c-.7,0-1.27,0-1.7,0s-1,0-1.7,0c.38-4.12.64-7.47.79-10s.27-5.32.36-8.27.22-5.7.38-8.26c-.83.7-1.47,1.22-1.92,1.55a9.14,9.14,0,0,1-1.45.91,18.08,18.08,0,0,1-1.9.83q-1.11.42-2,.72c-.62.21-2.12.63-4.5,1.27s-4.09,1.13-5.11,1.46a35.21,35.21,0,0,0-5.38,2.13,15.18,15.18,0,0,0-3.43,2.42,8,8,0,0,0-1.78,2.47,8.32,8.32,0,0,0-.65,3.26,7,7,0,0,0,1.58,4.56,8.45,8.45,0,0,0,4,2.73,18.89,18.89,0,0,0,5.8.78,28.8,28.8,0,0,0,3.27-.18q1.57-.18,3-.48c.93-.21,2.27-.59,4-1.16-.24,1-.44,2-.61,3.07a50.11,50.11,0,0,1-5.31.83c-1.36.12-2.65.18-3.86.18a34.84,34.84,0,0,1-6.26-.52,10.64,10.64,0,0,1-4.81-2.06,9.67,9.67,0,0,1-2.87-3.55,10,10,0,0,1-.93-4.24,9.73,9.73,0,0,1,.57-3.29,10.24,10.24,0,0,1,1.73-3,10.81,10.81,0,0,1,2.59-2.26,20.31,20.31,0,0,1,4.2-2.18c1.77-.7,3.69-1.35,5.73-1.94q.85-.24,6.67-1.73a32.91,32.91,0,0,0,5-1.72,8.5,8.5,0,0,0,3.64-2.86,6.46,6.46,0,0,0,1.29-3.74,6,6,0,0,0-.61-2.65,6.54,6.54,0,0,0-2.16-2.4,9.61,9.61,0,0,0-3.85-1.58,26.11,26.11,0,0,0-4.85-.44,38.54,38.54,0,0,0-5.53.38,37.13,37.13,0,0,0-4.36.89,46.94,46.94,0,0,0-4.48,1.6"/><path class="cls-1" d="M187.81,259.06c.22-1.25.36-2.29.5-3.55l-1.1,1.44c5.82-1.53,11.77-2.48,17.78-1.56,4.23.65,7.83,2.4,8.45,7a42.15,42.15,0,0,1-.1,7.78c-.43,8.34-1,16.65-1,25l1.5-1.5c-1.14,0-2.26,0-3.4,0l1.5,1.5c.8-8.85,1-17.69,1.53-26.55.09-1.42-1.64-1.82-2.56-1.06-7.5,6.19-26.18,4.5-28.41,16.2-2.54,13.36,15.61,12,23.33,9.58L204,291.52c-.87,4-8.19,3.14-11.59,2.84-3.7-.32-6.91-1.3-8.84-4.68-2.29-4-.86-8.68,2.88-11.36,6.8-4.88,16.14-3.83,23-8.34,4.8-3.15,5.76-9.83.87-13.35-6.59-4.74-17.51-2.1-24.38.58-1.78.7-1,3.6.8,2.9a36,36,0,0,1,15.64-2.77c3.21.22,8.24,1.35,8.3,5.52.07,4.65-6.09,6.14-9.57,7.07-6.3,1.68-14.08,2.92-18.71,7.9a11.5,11.5,0,0,0,1.44,16.88c5.73,4.32,14.85,3,21.4,1.72a1.45,1.45,0,0,0,1-1.05c.16-1,.37-2.05.61-3.07a1.51,1.51,0,0,0-1.85-1.84c-4.53,1.41-10,2.71-14.63,1.2-5-1.6-6.41-6.44-3.1-10.68,1.54-2,5.14-3.15,7.32-3.89,6.48-2.2,13-2.93,18.42-7.4l-2.57-1.06c-.53,8.86-.73,17.7-1.53,26.55a1.52,1.52,0,0,0,1.5,1.5c1.14,0,2.26,0,3.4,0a1.52,1.52,0,0,0,1.5-1.5c0-4.81.12-9.6.34-14.4.28-6.19,1.51-12.82.7-19-1.73-13.27-21.11-10.09-30-7.74a1.57,1.57,0,0,0-1.1,1.45l-.39,2.75c-.32,1.89,2.57,2.7,2.89.8Z"/><path class="cls-2" d="M112.26,304.93h-94v1.25h93.8a6.12,6.12,0,0,1,.16-1.25"/><path class="cls-2" d="M214.61,304.66H130.48v.89h84a3.6,3.6,0,0,1,.15-.89"/><path class="cls-3" d="M0,0V2.28Q2,1.08,3.94,0Z"/><path class="cls-4" d="M35.22,80.1s12.73,27.5-3,26.29c0,0,19.52,21.44-.5,30,0,0,50.39,19.94,12.37,28.43L27.94,167.6C44,189,60.43,188.76,27.22,212.41,95.07,199,141.61,125.34,130.39,58c-2.9-13.91,3.15-21,13.08-24.16a25.93,25.93,0,0,1,11.32-3.05c0-.35-.1-.74-.15-1.11a3.64,3.64,0,0,1,.43-1.92,3.79,3.79,0,0,1,.47-1,5.58,5.58,0,0,1,4-5.53c-1.25-.46-2.49-.93-3.73-1.44a104.74,104.74,0,0,1-12.47-6.72l-1.58-.4C127,9,114.3,23.41,118.3,37.73c25.93,122.51-38.49,96.41-73.12,37.91C44.09,79.8,40.74,82.49,35.22,80.1Z"/><path d="M26.6,0h0c-15.81,14.6-9,28.69-1.35,49.19,13,32.13-8.49,14.09-20.29-7.33C-3,59.76,5,69.48,19.77,82.26,44.45,105.16,19.55,99,0,85.45c.44.29,0,5.2,0,6A49.44,49.44,0,0,0,.49,97a23.59,23.59,0,0,0,3.16,9.16c4.75,7.46,13.59,8.14,21.27,10.77,2.75.94,13.81,5.69,6.45,8.38S14.5,126.75,7,125.56c3.51,15.72,9.31,23.7,27.08,22.73,27.08,2.07,8,10.72-11.11,11.89a76.46,76.46,0,0,0,5,7.42l16.11-2.75c38-8.49-12.07-28.53-12.07-28.53,23.36-9.1.2-29.93.2-29.93,16,2.29,3.14-26.09,3.14-26.09,5.52,2.39,9-.08,10.11-4.25C31.74,52.92,24.7,28,26.6,0Z"/><path class="cls-2" d="M211,35.26a10.82,10.82,0,0,0-2.54-.9c-5.25-1.16-29.42-6.86-49-13.11a14.14,14.14,0,0,0-4,1.42l-.07,0a11.46,11.46,0,0,1-2.55,1,43.06,43.06,0,0,1-6.3.91,30,30,0,0,0-4.36,1,34.39,34.39,0,0,1,10.09,5.48c21.05.59,49.76,5.13,55.52,6.15a8.19,8.19,0,0,0,2.66,0c1.42-.21,1.6-.56,1.48-.82.3-.09.62-.37-1-1.2"/><path class="cls-4" d="M179.45,151c4.92-8.63,12.07-3.64,23.94-2.56,0,0-15.73-13-11-20.63,1.88-3,3.91-9.91,25.88-10.25,0,0-17.73-4.11-8.09-14.56,7.22-7.82,22.66-11.87,22.66-11.87s-13.89.53-13-9.57c-33.45,32.07-71.32,53.81-71.55,50.12-.25-4.27-3.61-23.26-4.7-27.16-2.74,36.55-7.49,72.21-30.38,102.78,22.09-.2,50.75-11.5,76.64-29.83C183.79,170.66,175,158.81,179.45,151Z"/><path d="M201,160.06c11.2,7.12,18-9.67,25.61-16.13-20.49-6.53-39.37-21.67-9.41-16.13,17.45,5.72,24.7-.64,30.21-16.4-23,2.06-45.38-4.2-13.76-12.38,15.28-3,24.36-7,22.91-23.28-18.15,9-34.85,10.41-12-8.45,9.93-6.59,13.13-12.62,7.85-23.6-8.93,13.5-20.4,26.36-32.43,37.89-.93,10.1,13,9.57,13,9.57s-15.44,4-22.66,11.87c-9.64,10.45,8.09,14.56,8.09,14.56-22,.34-24,7.21-25.88,10.25-4.74,7.62,11,20.63,11,20.63-11.87-1.08-19-6.07-23.94,2.56-4.44,7.79,4.34,19.64,10.45,26.47q4.38-3.11,8.64-6.46C185.9,161.88,179.5,151.49,201,160.06Z"/></g></g></svg>