<svg xmlns="http://www.w3.org/2000/svg" viewBox="0 0 625.17 212.41"><defs><style>.cls-1{fill:#1d1d1b;}.cls-2{fill:#e30613;}.cls-3{fill:none;}.cls-4{fill:#fff;}</style></defs><title>Fichier 11</title><g id="Calque_2" data-name="Calque 2"><g id="Calque_3" data-name="Calque 3"><path class="cls-1" d="M313.25,165.84q1.5-27.51,2.25-51.41t.75-35.76q1.68.06,2.85.06c.77,0,1.7,0,2.78-.06l-1.73,40.81h59.34l1.2-32.06q.13-2.69.13-8.75c1.12,0,2.07.06,2.84.06s1.71,0,2.79-.06q-2.44,39.58-3.38,87.17c-1.06,0-2-.06-2.78-.06s-1.8,0-2.85.06q1.53-22.22,1.9-42.47H320l-1,31.36-.12,11.11c-1.11,0-2.05-.06-2.81-.06s-1.75,0-2.82.06"/><path class="cls-1" d="M314.75,165.84c1.57-29,3-58.11,3-87.17l-1.5,1.5c1.88,0,3.75.06,5.63,0l-1.5-1.5-1.73,40.81a1.52,1.52,0,0,0,1.5,1.5h59.34a1.52,1.52,0,0,0,1.5-1.5c.51-13.59,1.31-27.21,1.33-40.81l-1.5,1.5c1.88.06,3.75.06,5.63,0l-1.5-1.5c-1.77,29-2.79,58.1-3.38,87.17l1.5-1.5c-1.88-.06-3.75-.05-5.63,0l1.5,1.5c1-14.14,1.63-28.29,1.9-42.47a1.52,1.52,0,0,0-1.5-1.5H320a1.52,1.52,0,0,0-1.5,1.5c-.46,14.16-1,28.31-1.14,42.47l1.5-1.5c-1.88-.05-3.75-.05-5.63,0s-1.93,3.06,0,3,3.75-.05,5.63,0a1.52,1.52,0,0,0,1.5-1.5c.16-14.16.68-28.31,1.14-42.47l-1.5,1.5h59.32l-1.5-1.5c-.27,14.18-.94,28.33-1.9,42.47a1.5,1.5,0,0,0,1.5,1.5c1.88-.05,3.75-.06,5.63,0a1.52,1.52,0,0,0,1.5-1.5c.59-29.07,1.61-58.14,3.38-87.17a1.52,1.52,0,0,0-1.5-1.5c-1.88.06-3.75.06-5.63,0a1.51,1.51,0,0,0-1.5,1.5c0,13.6-.82,27.22-1.33,40.81l1.5-1.5H320.15l1.5,1.5,1.73-40.81a1.52,1.52,0,0,0-1.5-1.5c-1.88.06-3.75,0-5.63,0a1.51,1.51,0,0,0-1.5,1.5c0,29.06-1.43,58.16-3,87.17-.1,1.93,2.9,1.93,3,0Z"/><path class="cls-1" d="M433,100a39.83,39.83,0,0,1,11.5,1.66,24.27,24.27,0,0,1,9.8,5.65,25.47,25.47,0,0,1,6.49,10.44A41.47,41.47,0,0,1,463,131.42a47.39,47.39,0,0,1-2.36,14.94,33.15,33.15,0,0,1-6.71,12,23.79,23.79,0,0,1-10.18,6.8,38.5,38.5,0,0,1-12.43,2,39,39,0,0,1-9-1.05,26.34,26.34,0,0,1-8.31-3.55,25.52,25.52,0,0,1-6.77-6.45,28.74,28.74,0,0,1-4.4-9.38,42.28,42.28,0,0,1-1.5-11.31,45.28,45.28,0,0,1,3.83-18.81A25.42,25.42,0,0,1,416.62,104,34.64,34.64,0,0,1,433,100m-.12,3.57a28.11,28.11,0,0,0-14.12,3.71,22,22,0,0,0-9.58,11.29,44.13,44.13,0,0,0-3.06,16.65,40,40,0,0,0,1.75,12,22.57,22.57,0,0,0,5.66,9.48,21.66,21.66,0,0,0,8.39,5.36,29.84,29.84,0,0,0,9.49,1.5,30.43,30.43,0,0,0,10.66-1.85,21.75,21.75,0,0,0,8.79-6.19,27.13,27.13,0,0,0,5.58-10.66,49,49,0,0,0,1.79-13.39,41.9,41.9,0,0,0-1.76-12.35,20.66,20.66,0,0,0-5.45-9.25,20.88,20.88,0,0,0-8.44-4.88,33.73,33.73,0,0,0-9.7-1.41"/><path class="cls-1" d="M433,101.5c8.68.17,17.57,2.52,22.91,9.91,4.76,6.58,6.08,15.51,5.49,23.44s-3.06,16.38-8.51,22.43c-5.72,6.35-14.15,8.52-22.46,8.32-18.27-.43-28.2-14.68-27.57-32.07.29-8.15,2.51-17.12,8.14-23.3s14-8.55,22-8.73c1.93,0,1.94-3,0-3-14.47.33-26.2,7.69-30.82,21.64-4.36,13.12-3.41,30.56,7.14,40.59,9.88,9.39,27.73,10.53,39.37,3.82,12.55-7.22,17-24,15.6-37.56-.76-7.54-3.29-15.42-8.93-20.74-6.06-5.72-14.24-7.59-22.36-7.75-1.93,0-1.93,3,0,3Z"/><path class="cls-1" d="M432.88,102.07c-12.23.34-22.07,6.68-26,18.41-3.85,11.54-3.71,27.34,5,36.7,8.53,9.13,24.54,10.54,34.95,3.77,10.73-7,13.64-21.23,12.71-33.18-.54-6.82-2.41-14.11-7.51-19s-12.22-6.56-19.2-6.73c-1.93,0-1.93,3,0,3,7.52.18,15.3,2.3,19.66,9,3.9,6,4.53,14,4.08,20.93-1,15.17-9.67,27.5-26,27.07-16.91-.44-23.91-15.16-22.84-30.37,1.05-14.91,9.46-26.15,25.14-26.58,1.92,0,1.93-3,0-3Z"/><path class="cls-1" d="M475.73,194.14l.75-12.89,2-57.83.44-19.4a127,127,0,0,1,14.54-3.13,86.32,86.32,0,0,1,12.12-.89,38,38,0,0,1,16.14,3.16A22.13,22.13,0,0,1,532.31,114a38.87,38.87,0,0,1,3.78,17.43,44.63,44.63,0,0,1-4,19q-4,8.63-10.8,12.68a29.07,29.07,0,0,1-15.17,4.05,33.49,33.49,0,0,1-7.42-.83,24.9,24.9,0,0,1-6.67-2.52,19.13,19.13,0,0,1-5.18-4.15,43.67,43.67,0,0,1-5-7.7l-1,33.8v2.17c0,1.44,0,3.53.06,6.25-1.1,0-2-.07-2.62-.07s-1.51,0-2.62.07M483.91,108q-.53,5.43-1,15.52t-.42,13.35a43.65,43.65,0,0,0,1.15,10.31,20.17,20.17,0,0,0,4.61,8.69,22.18,22.18,0,0,0,8.16,5.91,24.86,24.86,0,0,0,9.76,2,22.63,22.63,0,0,0,13-3.9,25,25,0,0,0,8.93-11.53,43,43,0,0,0,3.16-16.63A34.66,34.66,0,0,0,528,116.09a20.86,20.86,0,0,0-8.86-9.55,26.73,26.73,0,0,0-12.69-3,64.89,64.89,0,0,0-22.57,4.4"/><path class="cls-1" d="M477.23,194.14c1.38-23.54,2.09-47.14,2.76-70.7.18-6.47.29-13,.44-19.42l-1.1,1.45c11.9-3.14,25.56-6.08,37.69-2.48,12.9,3.84,17.75,16.78,17.55,29.29-.19,12.1-5.1,25.66-16.82,30.95a29.65,29.65,0,0,1-20.08,1.25c-7.19-2.13-11-7-14.48-13.32a1.51,1.51,0,0,0-2.79.76c-.41,14.06-1.14,28.15-.93,42.22l1.5-1.5c-1.75-.06-3.49-.06-5.24,0-1.93.06-1.93,3.06,0,3,1.75-.06,3.49-.06,5.24,0a1.51,1.51,0,0,0,1.5-1.5c-.21-14.07.52-28.16.93-42.22l-2.8.76c3.35,6.07,6.94,11.07,13.55,13.75a32.81,32.81,0,0,0,20.35,1.12c13.81-3.69,21.17-16.75,22.74-30.24,1.47-12.66-1.72-28.82-14.14-35.14-13.5-6.87-30.68-3.25-44.57.4a1.53,1.53,0,0,0-1.1,1.45c-.57,25-1.5,49.93-2.36,74.9-.18,5.08-.54,10.15-.84,15.22-.11,1.93,2.89,1.92,3,0Z"/><path class="cls-1" d="M482.41,108c-1.07,11.63-2.6,24.5-.83,36.12a24.47,24.47,0,0,0,23.8,21.11c26.45.89,35.64-37.85,20.35-55.31-10.42-11.91-29.26-8-42.22-3.36-1.81.64-1,3.54.8,2.89,13.32-4.77,33.13-8.81,41.67,6,7.06,12.24,5,33.41-6.59,42.38a22.32,22.32,0,0,1-22.23,2.58c-8-3.38-12.11-10.62-12.91-19.06-1.05-10.89.16-22.49,1.16-33.35.17-1.92-2.83-1.91-3,0Z"/><path class="cls-1" d="M550.2,165.84q2.94-53.26,3.45-87.17c1.1,0,2,.06,2.62.06s1.51,0,2.62-.06l-1.62,31.1-1.83,56.07c-1.11,0-2-.06-2.62-.06s-1.51,0-2.62.06"/><path class="cls-1" d="M551.7,165.84c1.59-29,3-58.09,3.45-87.17l-1.5,1.5c1.75,0,3.48,0,5.24,0l-1.5-1.5c-1.24,23.87-2.16,47.71-2.94,71.6l-.51,15.57,1.5-1.5c-1.75-.05-3.49-.05-5.24,0-1.92.07-1.93,3.07,0,3,1.75-.05,3.49-.05,5.24,0a1.52,1.52,0,0,0,1.5-1.5c.72-21.93,1.2-43.88,2.34-65.8l1.11-21.37a1.51,1.51,0,0,0-1.5-1.5c-1.76,0-3.49,0-5.24,0a1.52,1.52,0,0,0-1.5,1.5c-.46,29.08-1.86,58.14-3.45,87.17-.1,1.93,2.9,1.93,3,0Z"/><path class="cls-1" d="M578.17,108.11a44.75,44.75,0,0,0,.71-5,92.63,92.63,0,0,1,11.3-2.46,69.57,69.57,0,0,1,9.71-.67,53.25,53.25,0,0,1,10.57,1,19.43,19.43,0,0,1,8,3.32,11,11,0,0,1,4.09,5.33,19.47,19.47,0,0,1,1,6.13c0,2.13-.08,4.82-.22,8.08s-.35,6.76-.61,10.51-.49,8.42-.7,14-.31,9.63-.31,12.1v5.36c-1.11,0-2-.06-2.69-.06s-1.62,0-2.69.06q.9-9.76,1.24-15.84t.58-13.05q.23-7,.61-13.07c-1.32,1.11-2.34,1.93-3,2.46a15.11,15.11,0,0,1-2.3,1.43,28,28,0,0,1-3,1.31c-1.17.45-2.24.83-3.22,1.15s-3.36,1-7.12,2-6.46,1.78-8.08,2.29a55.76,55.76,0,0,0-8.5,3.38,23.53,23.53,0,0,0-5.42,3.83,12.17,12.17,0,0,0-2.81,3.89,13.13,13.13,0,0,0-1,5.16A11.07,11.07,0,0,0,576.7,158a13.3,13.3,0,0,0,6.3,4.3,29.56,29.56,0,0,0,9.16,1.25,45.4,45.4,0,0,0,5.17-.29,47.55,47.55,0,0,0,4.7-.77c1.47-.32,3.58-.92,6.35-1.82-.38,1.62-.7,3.24-1,4.85a80.37,80.37,0,0,1-8.39,1.31c-2.15.2-4.19.29-6.1.29a55.34,55.34,0,0,1-9.9-.83,16.81,16.81,0,0,1-7.6-3.25,15.45,15.45,0,0,1-4.54-5.61,15.84,15.84,0,0,1-1.47-6.7,15.33,15.33,0,0,1,.9-5.2,16.49,16.49,0,0,1,2.74-4.82,17.16,17.16,0,0,1,4.09-3.57,32.26,32.26,0,0,1,6.64-3.44q4.2-1.66,9.06-3.07,1.33-.37,10.53-2.74a52.15,52.15,0,0,0,7.85-2.71,13.41,13.41,0,0,0,5.75-4.53,10.16,10.16,0,0,0,2-5.9,9.58,9.58,0,0,0-1-4.18,10.38,10.38,0,0,0-3.41-3.8,15,15,0,0,0-6.1-2.49,40.18,40.18,0,0,0-7.66-.7,60.21,60.21,0,0,0-8.74.6,55,55,0,0,0-6.89,1.41,72.84,72.84,0,0,0-7.09,2.52"/><path class="cls-1" d="M579.62,108.51c.33-1.79.56-3.57.76-5.38l-1.1,1.44c9.92-2.65,20.58-4.34,30.78-2.14,5.2,1.13,10,3.61,11.46,9.12,1.14,4.39.42,9.48.2,14-.67,13.46-1.54,26.87-1.54,40.34l1.5-1.5c-1.8-.05-3.58-.05-5.38,0l1.5,1.5c1.27-14,1.57-28,2.43-42,.08-1.41-1.65-1.82-2.56-1.06C610.27,129,601,130.16,592,133c-7.22,2.25-16.6,5.8-18.8,13.93-2,7.39,2.25,14.49,9.38,16.87,8.44,2.82,17.94,1,26.18-1.63l-1.84-1.85c-.62,2.75-.39,3.6-3.15,4.41a27.12,27.12,0,0,1-4.76.65,60.51,60.51,0,0,1-11.26.08c-4.52-.39-9-1.22-12.44-4.43a14.14,14.14,0,0,1-3.57-15c4.81-13.1,24.75-13.91,36-17.82,5.17-1.78,10.33-4.39,12.14-10a11.12,11.12,0,0,0-4.54-12.66c-10.19-7.14-27.09-3-37.63,1.19-1.78.71-1,3.61.79,2.9a58.55,58.55,0,0,1,22.32-4.48c4,0,8.44.24,12,2.31,4.93,2.9,6.07,8.9,2.17,13.31-4.77,5.4-14.43,6.28-21.07,8.08-5.34,1.45-10.89,3.11-15.71,5.91-9.92,5.75-14.34,18.82-5.56,27.88,8.5,8.78,24.35,6.47,35.13,4.4a1.45,1.45,0,0,0,1-1.05c.28-1.63.6-3.23,1-4.85a1.51,1.51,0,0,0-1.85-1.84c-7.33,2.32-15.66,4.14-23.28,2-4.92-1.38-9-5-9-10.45,0-6,4.66-9.75,9.59-12.12,11.39-5.47,24.49-5.42,34.49-13.73l-2.56-1.06c-.86,14-1.16,28-2.43,42a1.51,1.51,0,0,0,1.5,1.5c1.8-.05,3.58-.05,5.38,0a1.51,1.51,0,0,0,1.5-1.5q0-10.09.42-20.18c.43-10.35,2.17-21.1,1.36-31.44-1.67-21.28-32.73-16.21-46.48-12.54a1.57,1.57,0,0,0-1.1,1.45,41.38,41.38,0,0,1-.65,4.58c-.34,1.89,2.55,2.7,2.89.8Z"/><path class="cls-2" d="M461.05,181.25H312.52v2H460.79a8.6,8.6,0,0,1,.26-2"/><path class="cls-2" d="M622.81,180.82h-133v1.4H622.58a5.46,5.46,0,0,1,.23-1.4"/><path class="cls-3" d="M0,0V2.28Q2,1.08,3.94,0Z"/><path class="cls-4" d="M35.22,80.1s12.73,27.5-3,26.29c0,0,19.52,21.44-.5,30,0,0,50.39,19.94,12.37,28.43L27.94,167.6C44,189,60.43,188.76,27.22,212.41,95.07,199,141.61,125.34,130.39,58c-2.9-13.91,3.15-21,13.08-24.16a25.93,25.93,0,0,1,11.32-3.05c0-.35-.1-.74-.15-1.11a3.64,3.64,0,0,1,.43-1.92,3.79,3.79,0,0,1,.47-1,5.58,5.58,0,0,1,4-5.53c-1.25-.46-2.49-.93-3.73-1.44a104.74,104.74,0,0,1-12.47-6.72l-1.58-.4C127,9,114.3,23.41,118.3,37.73c25.93,122.51-38.49,96.41-73.12,37.91C44.09,79.8,40.74,82.49,35.22,80.1Z"/><path d="M26.6,0h0c-15.81,14.6-9,28.69-1.35,49.19,13,32.13-8.49,14.09-20.29-7.33C-3,59.76,5,69.48,19.77,82.26,44.45,105.16,19.55,99,0,85.45c.44.29,0,5.2,0,6A49.44,49.44,0,0,0,.49,97a23.59,23.59,0,0,0,3.16,9.16c4.75,7.46,13.59,8.14,21.27,10.77,2.75.94,13.81,5.69,6.45,8.38S14.5,126.75,7,125.56c3.51,15.72,9.31,23.7,27.08,22.73,27.08,2.07,8,10.72-11.11,11.89a76.46,76.46,0,0,0,5,7.42l16.11-2.75c38-8.49-12.07-28.53-12.07-28.53,23.36-9.1.2-29.93.2-29.93,16,2.29,3.14-26.09,3.14-26.09,5.52,2.39,9-.08,10.11-4.25C31.74,52.92,24.7,28,26.6,0Z"/><path class="cls-2" d="M211,35.26a10.82,10.82,0,0,0-2.54-.9c-5.25-1.16-29.42-6.86-49-13.11a14.14,14.14,0,0,0-4,1.42l-.07,0a11.46,11.46,0,0,1-2.55,1,43.06,43.06,0,0,1-6.3.91,30,30,0,0,0-4.36,1,34.39,34.39,0,0,1,10.09,5.48c21.05.59,49.76,5.13,55.52,6.15a8.19,8.19,0,0,0,2.66,0c1.42-.21,1.6-.56,1.48-.82.3-.09.62-.37-1-1.2"/><path class="cls-4" d="M179.45,151c4.92-8.63,12.07-3.64,23.94-2.56,0,0-15.73-13-11-20.63,1.88-3,3.91-9.91,25.88-10.25,0,0-17.73-4.11-8.09-14.56,7.22-7.82,22.66-11.87,22.66-11.87s-13.89.53-13-9.57c-33.45,32.07-71.32,53.81-71.55,50.12-.25-4.27-3.61-23.26-4.7-27.16-2.74,36.55-7.49,72.21-30.38,102.78,22.09-.2,50.75-11.5,76.64-29.83C183.79,170.66,175,158.81,179.45,151Z"/><path d="M201,160.06c11.2,7.12,18-9.67,25.61-16.13-20.49-6.53-39.37-21.67-9.41-16.13,17.45,5.72,24.7-.64,30.21-16.4-23,2.06-45.38-4.2-13.76-12.38,15.28-3,24.36-7,22.91-23.28-18.15,9-34.85,10.41-12-8.45,9.93-6.59,13.13-12.62,7.85-23.6-8.93,13.5-20.4,26.36-32.43,37.89-.93,10.1,13,9.57,13,9.57s-15.44,4-22.66,11.87c-9.64,10.45,8.09,14.56,8.09,14.56-22,.34-24,7.21-25.88,10.25-4.74,7.62,11,20.63,11,20.63-11.87-1.08-19-6.07-23.94,2.56-4.44,7.79,4.34,19.64,10.45,26.47q4.38-3.11,8.64-6.46C185.9,161.88,179.5,151.49,201,160.06Z"/></g></g></svg>